<svg xmlns="http://www.w3.org/2000/svg" version="1.1" width="3300" height="2000"><g id="Notes"><style>
    text {
      font-family: monospace;
      text-anchor: middle;
    }
    text.emphasis {
      font-weight:bold;
    }
    text.lanchor {
      text-anchor: start;
    }
  </style><rect height="2200" id="artboard" fill="white" width="3300" x="0" y="0"/><line id="" style="fill:none;stroke:black;stroke-width:0.5;" x1="263" x2="3036" y1="292" y2="292"/><text class="lanchor emphasis" transform="matrix(1 0 0 1 263 322)">Weight/Scale Variations</text><text transform="matrix(1 0 0 1 559.711 322)">Ultralight</text><text transform="matrix(1 0 0 1 856.422 322)">Thin</text><text transform="matrix(1 0 0 1 1153.13 322)">Light</text><text transform="matrix(1 0 0 1 1449.84 322)">Regular</text><text transform="matrix(1 0 0 1 1746.56 322)">Medium</text><text transform="matrix(1 0 0 1 2043.27 322)">Semibold</text><text transform="matrix(1 0 0 1 2339.98 322)">Bold</text><text transform="matrix(1 0 0 1 2636.69 322)">Heavy</text><text transform="matrix(1 0 0 1 2933.4 322)">Black</text><text id="template-version" style="text-anchor: end;" transform="matrix(1 0 0 1 3036 1933)">Template v.1.0</text><text class="lanchor" transform="matrix(1 0 0 1 263 726)">Small</text><text class="lanchor" transform="matrix(1 0 0 1 263 1156)">Medium</text><text class="lanchor" transform="matrix(1 0 0 1 263 1586)">Large</text></g><g id="Guides"><g id="H-reference" style="fill:#27AAE1;stroke:none;" transform="matrix(1 0 0 1 339 696)"><path d="M 54.9316 0 L 57.666 0 L 30.5664 -70.459 L 28.0762 -70.459 L 0.976562 0 L 3.66211 0 L 12.9395 -24.4629 L 45.7031 -24.4629 Z M 29.1992 -67.0898 L 29.4434 -67.0898 L 44.8242 -26.709 L 13.8184 -26.709 Z"/></g><line id="Baseline-S" style="fill:none;stroke:#27AAE1;opacity:1;stroke-width:0.577;" x1="263" x2="3036" y1="696" y2="696"/><line id="Capline-S" style="fill:none;stroke:#27AAE1;opacity:1;stroke-width:0.577;" x1="263" x2="3036" y1="625.541" y2="625.541"/><g id="H-reference" style="fill:#27AAE1;stroke:none;" transform="matrix(1 0 0 1 339 1126)"><path d="M 54.9316 0 L 57.666 0 L 30.5664 -70.459 L 28.0762 -70.459 L 0.976562 0 L 3.66211 0 L 12.9395 -24.4629 L 45.7031 -24.4629 Z M 29.1992 -67.0898 L 29.4434 -67.0898 L 44.8242 -26.709 L 13.8184 -26.709 Z"/></g><line id="Baseline-M" style="fill:none;stroke:#27AAE1;opacity:1;stroke-width:0.577;" x1="263" x2="3036" y1="1126" y2="1126"/><line id="Capline-M" style="fill:none;stroke:#27AAE1;opacity:1;stroke-width:0.577;" x1="263" x2="3036" y1="1055.54" y2="1055.54"/><g id="H-reference" style="fill:#27AAE1;stroke:none;" transform="matrix(1 0 0 1 339 1556)"><path d="M 54.9316 0 L 57.666 0 L 30.5664 -70.459 L 28.0762 -70.459 L 0.976562 0 L 3.66211 0 L 12.9395 -24.4629 L 45.7031 -24.4629 Z M 29.1992 -67.0898 L 29.4434 -67.0898 L 44.8242 -26.709 L 13.8184 -26.709 Z"/></g><line id="Baseline-L" style="fill:none;stroke:#27AAE1;opacity:1;stroke-width:0.577;" x1="263" x2="3036" y1="1556" y2="1556"/><line id="Capline-L" style="fill:none;stroke:#27AAE1;opacity:1;stroke-width:0.577;" x1="263" x2="3036" y1="1485.54" y2="1485.54"/><rect height="119.336" id="left-margin" style="fill:darkred;stroke:none;opacity:0.4;" width="12.4512" x="1394.06" y="1030.79"/><rect height="119.336" id="right-margin" style="fill:darkgreen;stroke:none;opacity:0.4;" width="12.4512" x="1502.5112" y="1030.79"/><rect x="1406.5112" y="1045" width="96" height="96" fill="none" stroke="blue" stroke-dasharray="5"/><rect x="1394.06" y="1030.79" width="120.9024" height="119.336" fill="none" stroke="blue"/></g><g id="Symbols"><g id="Bold-L" transform="matrix(1 0 0 1 2266 1556)"><path d="M77.4 25.722500000000025  10.80375 -54.41874999999999  31.12125 -95.05374999999998 H123.67875000000001 L144.1575 -54.41874999999999 L77.4 25.722500000000025 Z M59.17875 -59.41749999999999 H95.62125 L84.33375000000001 -81.83124999999998 H70.46625 L59.17875 -59.41749999999999 Z M72.5625 -0.8837499999999778 V-49.74249999999998 H31.927500000000002 L72.5625 -0.8837499999999778 Z M82.2375 -0.8837499999999778  122.8725 -49.74249999999998 H82.2375 V-0.8837499999999778 Z M106.58625 -59.41749999999999 H126.0975 L114.97125 -81.83124999999998 H95.29875 L106.58625 -59.41749999999999 Z M28.7025 -59.41749999999999 H48.375 L59.50125 -81.83124999999998 H39.82875 L28.7025 -59.41749999999999 Z"/></g><g id="Semibold-L" transform="matrix(1 0 0 1 1970.27 1556)"><path d="M77.4 24.46055750000002  11.715135 -54.48889374999999  31.611933750000002 -94.28265249999998 H123.18806625 L143.17597125 -54.48889374999999 L77.4 24.46055750000002 Z M59.24889375 -59.41749999999999 H95.55110625000002 L83.91304875 -82.60234749999998 H70.88695125 L59.24889375 -59.41749999999999 Z M72.5625 0.3781925000000115 V-49.74249999999998 H30.875988750000005 L72.5625 0.3781925000000115 Z M82.2375 0.3781925000000115  123.92401124999999 -49.74249999999998 H82.2375 V0.3781925000000115 Z M106.44596250000001 -59.41749999999999 H127.008885 L115.46193375 -82.60234749999998 H94.80806625 L106.44596250000001 -59.41749999999999 Z M27.791115 -59.41749999999999 H48.44514375 L59.99193375 -82.60234749999998 H39.33806625 L27.791115 -59.41749999999999 Z"/></g><g id="Medium-L" transform="matrix(1 0 0 1 1674.31 1556)"><path d="M77.4 23.514020000000016  12.39867375 -54.54146124999998  31.9800675 -93.70408749999999 H122.8199325 L142.439865 -54.54146124999998 L77.4 23.514020000000016 Z M59.30146125 -59.41749999999999 H95.49853875000001 L83.59764374999999 -83.18091249999998 H71.20235625000001 L59.30146125 -59.41749999999999 Z M72.5625 1.3247300000000166 V-49.74249999999998 H30.08715375 L72.5625 1.3247300000000166 Z M82.2375 1.3247300000000166  124.71284625 -49.74249999999998 H82.2375 V1.3247300000000166 Z M106.34082749999999 -59.41749999999999 H127.69242375 L115.83006750000001 -83.18091249999998 H94.4399325 L106.34082749999999 -59.41749999999999 Z M27.10757625 -59.41749999999999 H48.49771125 L60.36006750000001 -83.18091249999998 H38.9699325 L27.10757625 -59.41749999999999 Z"/></g><g id="Regular-L" transform="matrix(1 0 0 1 1378.56 1556)"><path d="M77.4 22.82000000000002  12.9 -54.579999999999984  32.25 -93.27999999999999 H122.55 L141.9 -54.579999999999984 L77.4 22.82000000000002 Z M59.34 -59.41749999999999 H95.46000000000001 L83.36625000000001 -83.60499999999999 H71.43375 L59.34 -59.41749999999999 Z M72.5625 2.0187500000000114 V-49.74249999999998 H29.50875 L72.5625 2.0187500000000114 Z M82.2375 2.0187500000000114  125.29125 -49.74249999999998 H82.2375 V2.0187500000000114 Z M106.26375 -59.41749999999999 H128.19375 L116.10000000000001 -83.60499999999999 H94.17 L106.26375 -59.41749999999999 Z M26.60625 -59.41749999999999 H48.53625 L60.63 -83.60499999999999 H38.7 L26.60625 -59.41749999999999 Z"/></g><g id="Light-L" transform="matrix(1 0 0 1 1082.77 1556)"><path d="M77.4 20.27708750000002  14.822745000000001 -54.82816374999999  33.2423325 -91.66733874999998 H121.55766750000001 L139.977255 -54.82816374999999 L77.4 20.27708750000002 Z M57.47933625 -58.23908499999999 H97.32066375 L84.2966625 -84.34932999999998 H70.5033375 L57.47933625 -58.23908499999999 Z M73.740915 4.561662500000011 V-50.92091499999998 H27.648086250000002 L73.740915 4.561662500000011 Z M81.05908500000001 4.561662500000011  127.213995 -50.92091499999998 H81.05908500000001 V4.561662500000011 Z M105.51942000000001 -58.23908499999999 H129.74433 L116.6582475 -84.34932999999998 H92.43333750000001 L105.51942000000001 -58.23908499999999 Z M25.11775125 -58.23908499999999 H49.3425 L62.3666625 -84.34932999999998 H38.1417525 L25.11775125 -58.23908499999999 Z"/></g><g id="Thin-L" transform="matrix(1 0 0 1 787.282 1556)"><path d="M77.4 17.734497500000003  16.7451675 -55.076166249999986  34.234665 -90.05499999999998 H120.565335 L138.0548325 -55.076166249999986 L77.4 17.734497500000003 Z M55.61883375 -57.06083124999998 H99.18116625 L85.2267525 -85.09349874999998 H69.5732475 L55.61883375 -57.06083124999998 Z M74.91916875 7.10425250000003 V-52.09916874999999 H25.78758375 L74.91916875 7.10425250000003 Z M79.88083125 7.10425250000003  129.1364175 -52.09916874999999 H79.88083125 V7.10425250000003 Z M104.77525125000001 -57.06083124999998 H131.29474875 L117.21633375 -85.09349874999998 H90.6969975 L104.77525125000001 -57.06083124999998 Z M23.629413749999998 -57.06083124999998 H50.14875 L64.1030025 -85.09349874999998 H37.58366625 L23.629413749999998 -57.06083124999998 Z"/></g><g id="Ultralight-L" transform="matrix(1 0 0 1 491.205 1556)"><path d="M77.4 16.20875000000001  17.89875 -55.22499999999998  34.83 -89.08749999999998 H119.97 L136.90125 -55.22499999999998 L77.4 16.20875000000001 Z M54.502500000000005 -56.35374999999998 H100.2975 L85.785 -85.53999999999999 H69.015 L54.502500000000005 -56.35374999999998 Z M75.62625 8.630000000000024 V-52.80624999999998 H24.67125 L75.62625 8.630000000000024 Z M79.17375 8.630000000000024  130.29 -52.80624999999998 H79.17375 V8.630000000000024 Z M104.32875 -56.35374999999998 H132.225 L117.55125000000001 -85.53999999999999 H89.655 L104.32875 -56.35374999999998 Z M22.736250000000002 -56.35374999999998 H50.6325 L65.145 -85.53999999999999 H37.24875 L22.736250000000002 -56.35374999999998 Z"/></g><g id="Bold-M" transform="matrix(1 0 0 1 2281.8 1126)"><path d="M60.0 12.77000000000001  7.75 -49.97999999999999  23.875 -82.10499999999999 H96.125 L112.25 -49.97999999999999 L60.0 12.77000000000001 Z M48.0 -55.22999999999999 H72.0 L65.375 -68.35499999999999 H54.625 L48.0 -55.22999999999999 Z M55.0 -14.85499999999999 V-45.22999999999999 H29.75 L55.0 -14.85499999999999 Z M65.0 -14.85499999999999  90.25 -45.22999999999999 H65.0 V-14.85499999999999 Z M83.25 -55.22999999999999 H94.125 L87.625 -68.35499999999999 H76.625 L83.25 -55.22999999999999 Z M25.875 -55.22999999999999 H36.75 L43.375 -68.35499999999999 H32.375 L25.875 -55.22999999999999 Z"/></g><g id="Semibold-M" transform="matrix(1 0 0 1 1985.97 1126)"><path d="M60.0 11.465750000000014  8.72825 -50.08874999999999  24.364125 -81.289875 H95.635875 L111.27175 -50.08874999999999 L60.0 11.465750000000014 Z M48.054375 -55.22999999999999 H71.945625 L64.94025 -69.17012499999998 H55.05975 L48.054375 -55.22999999999999 Z M55.0 -13.550749999999994 V-45.22999999999999 H28.663125 L55.0 -13.550749999999994 Z M65.0 -13.550749999999994  91.336875 -45.22999999999999 H65.0 V-13.550749999999994 Z M83.14125 -55.22999999999999 H95.048875 L88.114125 -69.17012499999998 H76.135875 L83.14125 -55.22999999999999 Z M24.951125 -55.22999999999999 H36.85875 L43.864125 -69.17012499999998 H31.885875 L24.951125 -55.22999999999999 Z"/></g><g id="Medium-M" transform="matrix(1 0 0 1 1689.91 1126)"><path d="M60.0 10.487375000000014  9.462 -50.17024999999999  24.731 -80.67837499999999 H95.269 L110.538 -50.17024999999999 L60.0 10.487375000000014 Z M48.095125 -55.22999999999999 H71.904875 L64.614125 -69.78162499999999 H55.385875 L48.095125 -55.22999999999999 Z M55.0 -12.572374999999994 V-45.22999999999999 H27.847875 L55.0 -12.572374999999994 Z M65.0 -12.572374999999994  92.152125 -45.22999999999999 H65.0 V-12.572374999999994 Z M83.05975 -55.22999999999999 H95.741875 L88.481 -69.78162499999999 H75.769 L83.05975 -55.22999999999999 Z M24.258125 -55.22999999999999 H36.94025 L44.231 -69.78162499999999 H31.519 L24.258125 -55.22999999999999 Z"/></g><g id="Regular-M" transform="matrix(1 0 0 1 1394.06 1126)"><path d="M60.0 9.77000000000001  10.0 -50.22999999999999  25.0 -80.22999999999999 H95.0 L110.0 -50.22999999999999 L60.0 9.77000000000001 Z M48.125 -55.22999999999999 H71.875 L64.375 -70.22999999999999 H55.625 L48.125 -55.22999999999999 Z M55.0 -11.85499999999999 V-45.22999999999999 H27.25 L55.0 -11.85499999999999 Z M65.0 -11.85499999999999  92.75 -45.22999999999999 H65.0 V-11.85499999999999 Z M83.0 -55.22999999999999 H96.25 L88.75 -70.22999999999999 H75.5 L83.0 -55.22999999999999 Z M23.75 -55.22999999999999 H37.0 L44.5 -70.22999999999999 H31.25 L23.75 -55.22999999999999 Z"/></g><g id="Light-M" transform="matrix(1 0 0 1 1098.18 1126)"><path d="M60.0 7.7987500000000125  11.4905 -50.42237499999999  25.76925 -78.97987499999999 H94.23075 L108.5095 -50.42237499999999 L60.0 7.7987500000000125 Z M46.105625 -53.97987499999999 H73.894375 L65.14425 -71.48012499999999 H54.85575 L46.105625 -53.97987499999999 Z M56.250125 -8.393249999999995 V-46.48012499999999 H24.605625 L56.250125 -8.393249999999995 Z M63.749875 -8.393249999999995  95.394375 -46.48012499999999 H63.749875 V-8.393249999999995 Z M82.23075 -53.97987499999999 H98.269375 L89.51925 -71.48012499999999 H73.480625 L82.23075 -53.97987499999999 Z M21.730625 -53.97987499999999 H37.76925 L46.519375 -71.48012499999999 H30.48075 L21.730625 -53.97987499999999 Z"/></g><g id="Thin-M" transform="matrix(1 0 0 1 802.565 1126)"><path d="M60.0 5.827750000000009  12.98075 -50.61462499999999  26.5385 -77.72999999999999 H93.4615 L107.01925 -50.61462499999999 L60.0 5.827750000000009 Z M44.086625 -52.72999999999999 H75.913375 L65.9135 -72.72999999999999 H54.0865 L44.086625 -52.72999999999999 Z M57.5 -4.931999999999988 V-47.72999999999999 H21.961625 L57.5 -4.931999999999988 Z M62.5 -4.931999999999988  98.038375 -47.72999999999999 H62.5 V-4.931999999999988 Z M81.4615 -52.72999999999999 H100.288375 L90.2885 -72.72999999999999 H71.461625 L81.4615 -52.72999999999999 Z M19.711625 -52.72999999999999 H38.5385 L48.538375 -72.72999999999999 H29.7115 L19.711625 -52.72999999999999 Z"/></g><g id="Ultralight-M" transform="matrix(1 0 0 1 506.415 1126)"><path d="M60.0 4.64500000000001  13.875 -50.72999999999999  27.0 -76.97999999999999 H93.0 L106.125 -50.72999999999999 L60.0 4.64500000000001 Z M42.875 -51.97999999999999 H77.125 L66.375 -73.47999999999999 H53.625 L42.875 -51.97999999999999 Z M58.25 -2.8549999999999898 V-48.47999999999999 H20.375 L58.25 -2.8549999999999898 Z M61.75 -2.8549999999999898  99.625 -48.47999999999999 H61.75 V-2.8549999999999898 Z M81.0 -51.97999999999999 H101.5 L90.75 -73.47999999999999 H70.25 L81.0 -51.97999999999999 Z M18.5 -51.97999999999999 H39.0 L49.75 -73.47999999999999 H29.25 L18.5 -51.97999999999999 Z"/></g><g id="Bold-S" transform="matrix(1 0 0 1 2294.23 696)"><path d="M47.34 0.2750000000000057  7.69275 -44.50075  18.048375 -69.847375 H76.631625 L86.98725 -44.50075 L47.34 0.2750000000000057 Z M38.759625 -48.24849999999999 H55.920375 L50.1015 -59.787625 H44.578500000000005 L38.759625 -48.24849999999999 Z M43.789500000000004 -19.154124999999993 V-41.147499999999994 H24.064500000000002 L43.789500000000004 -19.154124999999993 Z M50.8905 -19.154124999999993  70.6155 -41.147499999999994 H50.8905 V-19.154124999999993 Z M63.909000000000006 -48.24849999999999 H74.461875 L70.122375 -59.787625 H58.090125 L63.909000000000006 -48.24849999999999 Z M20.218125 -48.24849999999999 H30.771 L36.589875 -59.787625 H24.65625 L20.218125 -48.24849999999999 Z"/></g><g id="Semibold-S" transform="matrix(1 0 0 1 1998.1 696)"><path d="M47.34 -0.7540532499999841  8.46458925 -44.58655374999999  18.434294625000003 -69.204241375 H76.245705375 L86.21541075 -44.58655374999999 L47.34 -0.7540532499999841 Z M38.802526875000005 -48.24849999999999 H55.87747312500001 L49.75848225 -60.430758624999996 H44.92151775 L38.802526875000005 -48.24849999999999 Z M43.789500000000004 -18.125071750000004 V-41.147499999999994 H23.206955625000003 L43.789500000000004 -18.125071750000004 Z M50.8905 -18.125071750000004  71.47304437500001 -41.147499999999994 H50.8905 V-18.125071750000004 Z M63.82319625 -48.24849999999999 H75.190812375 L70.508294625 -60.430758624999996 H57.704205375 L63.82319625 -48.24849999999999 Z M19.489187625000003 -48.24849999999999 H30.85680375 L36.975794625000006 -60.430758624999996 H24.270330375 L19.489187625000003 -48.24849999999999 Z"/></g><g id="Medium-S" transform="matrix(1 0 0 1 1701.85 696)"><path d="M47.34 -1.5259911249999902  9.043518 -44.650857249999994  18.723759 -68.721767875 H75.956241 L85.636482 -44.650857249999994 L47.34 -1.5259911249999902 Z M38.834678625 -48.24849999999999 H55.845321375000005 L49.501169625 -60.91323212499999 H45.178830375000004 L38.834678625 -48.24849999999999 Z M43.789500000000004 -17.353133874999997 V-41.147499999999994 H22.563723375 L43.789500000000004 -17.353133874999997 Z M50.8905 -17.353133874999997  72.116276625 -41.147499999999994 H50.8905 V-17.353133874999997 Z M63.75889275 -48.24849999999999 H75.737589375 L70.797759 -60.91323212499999 H57.41474100000001 L63.75889275 -48.24849999999999 Z M18.942410625 -48.24849999999999 H30.921107250000002 L37.265259 -60.91323212499999 H23.980866 L18.942410625 -48.24849999999999 Z"/></g><g id="Regular-S" transform="matrix(1 0 0 1 1405.73 696)"><path d="M47.34 -2.0919999999999987  9.468 -44.69799999999999  18.936 -68.368 H75.744 L85.212 -44.69799999999999 L47.34 -2.0919999999999987 Z M38.85825 -48.24849999999999 H55.82175 L49.3125 -61.266999999999996 H45.3675 L38.85825 -48.24849999999999 Z M43.789500000000004 -16.78712499999999 V-41.147499999999994 H22.092000000000002 L43.789500000000004 -16.78712499999999 Z M50.8905 -16.78712499999999  72.58800000000001 -41.147499999999994 H50.8905 V-16.78712499999999 Z M63.71175 -48.24849999999999 H76.13850000000001 L71.01 -61.266999999999996 H57.2025 L63.71175 -48.24849999999999 Z M18.5415 -48.24849999999999 H30.96825 L37.4775 -61.266999999999996 H23.768625 L18.5415 -48.24849999999999 Z"/></g><g id="Light-S" transform="matrix(1 0 0 1 1109.75 696)"><path d="M47.34 -3.6473162499999887  10.644004500000001 -44.84978387499999  19.54293825 -67.38165137499999 H75.13706175 L84.03599550000001 -44.84978387499999 L47.34 -3.6473162499999887 Z M37.264963125 -47.262151374999995 H57.415036875 L49.91943825 -62.253348624999994 H44.76056175 L37.264963125 -47.262151374999995 Z M44.775848625 -14.055804249999994 V-42.13384862499999 H20.005588125 L44.775848625 -14.055804249999994 Z M49.904151375000005 -14.055804249999994  74.674411875 -42.13384862499999 H49.904151375000005 V-14.055804249999994 Z M63.10481175 -47.262151374999995 H77.731786875 L71.61693825 -62.253348624999994 H55.609213125000004 L63.10481175 -47.262151374999995 Z M16.948213125000002 -47.262151374999995 H31.57518825 L39.070786874999996 -62.253348624999994 H23.16168675 L16.948213125000002 -47.262151374999995 Z"/></g><g id="Thin-S" transform="matrix(1 0 0 1 814.015 696)"><path d="M47.34 -5.2024352499999935  11.819811750000001 -45.00146912499999  20.1498765 -66.3955 H74.5301235 L82.86018825000001 -45.00146912499999 L47.34 -5.2024352499999935 Z M35.671972125 -46.275999999999996 H59.008027875 L50.526376500000005 -63.23949999999999 H44.1536235 L35.671972125 -46.275999999999996 Z M45.762 -11.324877999999998 V-43.12 H17.919472125000002 L45.762 -11.324877999999998 Z M48.918 -11.324877999999998  76.76052787500001 -43.12 H48.918 V-11.324877999999998 Z M62.497873500000004 -46.275999999999996 H79.32477787500001 L72.2238765 -63.23949999999999 H54.016222125 L62.497873500000004 -46.275999999999996 Z M15.355222125000003 -46.275999999999996 H32.1821265 L40.663777875 -63.23949999999999 H22.554748500000002 L15.355222125000003 -46.275999999999996 Z"/></g><g id="Ultralight-S" transform="matrix(1 0 0 1 517.792 696)"><path d="M47.34 -6.13562499999999  12.525375 -45.092499999999994  20.514 -65.80375 H74.166 L82.15462500000001 -45.092499999999994 L47.34 -6.13562499999999 Z M34.716 -45.68424999999999 H59.964000000000006 L50.8905 -63.83125 H43.789500000000004 L34.716 -45.68424999999999 Z M46.353750000000005 -9.68612499999999 V-43.711749999999995 H16.667625 L46.353750000000005 -9.68612499999999 Z M48.32625 -9.68612499999999  78.012375 -43.711749999999995 H48.32625 V-9.68612499999999 Z M62.133750000000006 -45.68424999999999 H80.28075 L72.58800000000001 -63.83125 H53.06025 L62.133750000000006 -45.68424999999999 Z M14.39925 -45.68424999999999 H32.54625 L41.61975 -63.83125 H22.190625 L14.39925 -45.68424999999999 Z"/></g></g></svg>